<?xml version="1.0" encoding="utf-8"?>
<!-- Generator: Adobe Illustrator 23.0.1, SVG Export Plug-In . SVG Version: 6.00 Build 0)  -->
<svg version="1.1" id="Layer_1" xmlns="http://www.w3.org/2000/svg" xmlns:xlink="http://www.w3.org/1999/xlink" x="0px" y="0px"
	 viewBox="0 0 3840 2160" style="enable-background:new 0 0 3840 2160;" xml:space="preserve">
<style type="text/css">
	.st0{fill:#0071B9;}
	.st1{fill:#FFFFFF;}
	.st2{fill:none;}
</style>
<g>
	<path class="st0" d="M1407.1,527.3h40.9v188.2c0,32.7-3.5,58.7-10.6,78c-7,19.3-19.7,34.9-38.1,47c-18.4,12.1-42.5,18.1-72.3,18.1
		c-29,0-52.7-5.3-71.1-15.8c-18.4-10.5-31.6-25.7-39.5-45.7c-7.9-19.9-11.8-47.1-11.8-81.6V527.3h40.9v188c0,28.3,2.5,49.1,7.5,62.5
		c5,13.4,13.6,23.7,25.7,31c12.2,7.3,27,10.9,44.6,10.9c30.1,0,51.6-7.2,64.4-21.6c12.8-14.4,19.2-42,19.2-82.9V527.3z"/>
	<path class="st0" d="M1519.7,853V527.3h116.7c20.5,0,36.2,1,47.1,3.1c15.2,2.7,27.9,7.7,38.2,15.2c10.3,7.5,18.5,18,24.8,31.4
		c6.3,13.5,9.4,28.3,9.4,44.4c0,27.7-8.4,51.1-25.1,70.3c-16.7,19.2-47,28.8-90.8,28.8h-79.4V853H1519.7z M1560.7,682.2h80
		c26.5,0,45.2-5.2,56.4-15.6c11.1-10.4,16.7-25,16.7-43.8c0-13.6-3.3-25.3-9.8-35c-6.5-9.7-15.2-16.1-25.9-19.2
		c-6.9-1.9-19.6-2.9-38.2-2.9h-79.1V682.2z"/>
	<path class="st0" d="M1809.8,853V527.3h40.9v287.3h152.4V853H1809.8z"/>
	<path class="st0" d="M2062.3,853V527.3h40.9V853H2062.3z"/>
	<path class="st0" d="M2181,853V527.3h208.7v38.4h-167.8v100.9h145.2v38.4h-145.2v148H2181z"/>
	<path class="st0" d="M2525.1,853V565.8h-101.9v-38.4h245.3v38.4H2566V853H2525.1z"/>
</g>
<rect x="1153.9" y="1006" class="st0" width="1532.1" height="184.1"/>
<g>
	<path class="st1" d="M1234.9,1117.4l15.7,1.9c-2.5,9.2-7.1,16.3-13.8,21.4c-6.7,5.1-15.3,7.6-25.7,7.6c-13.1,0-23.5-4-31.2-12.1
		c-7.7-8.1-11.5-19.4-11.5-34c0-15.1,3.9-26.8,11.7-35.1c7.8-8.3,17.9-12.5,30.2-12.5c12,0,21.8,4.1,29.4,12.2
		c7.6,8.2,11.4,19.7,11.4,34.5c0,0.9,0,2.3-0.1,4.1h-66.9c0.6,9.9,3.4,17.4,8.4,22.6c5,5.2,11.3,7.9,18.8,7.9
		c5.6,0,10.3-1.5,14.3-4.4C1229.4,1128.5,1232.6,1123.8,1234.9,1117.4z M1184.9,1092.8h50.1c-0.7-7.5-2.6-13.2-5.7-17
		c-4.8-5.9-11.1-8.8-18.8-8.8c-7,0-12.9,2.3-17.6,7C1188.1,1078.7,1185.5,1085,1184.9,1092.8z"/>
	<path class="st1" d="M1260.7,1146.2l32.8-46.6l-30.3-43.1h19l13.8,21c2.6,4,4.7,7.3,6.3,10.1c2.5-3.7,4.8-7,6.8-9.9l15.1-21.2h18.2
		l-31,42.2l33.4,47.5H1326l-18.4-27.9l-4.9-7.5l-23.6,35.4H1260.7z"/>
	<path class="st1" d="M1358.6,1180.6v-124.1h13.9v11.7c3.3-4.6,7-8,11.1-10.3c4.1-2.3,9.1-3.4,15-3.4c7.7,0,14.4,2,20.3,5.9
		c5.9,3.9,10.3,9.5,13.3,16.7c3,7.2,4.5,15.1,4.5,23.6c0,9.2-1.6,17.4-4.9,24.8c-3.3,7.3-8.1,13-14.4,16.9
		c-6.3,3.9-12.9,5.9-19.8,5.9c-5.1,0-9.6-1.1-13.6-3.2c-4-2.1-7.3-4.8-9.9-8.1v43.7H1358.6z M1372.4,1101.9c0,11.5,2.3,20.1,7,25.6
		c4.7,5.5,10.3,8.3,17,8.3c6.8,0,12.5-2.9,17.4-8.6c4.8-5.7,7.2-14.6,7.2-26.6c0-11.4-2.4-20-7.1-25.7c-4.7-5.7-10.3-8.5-16.9-8.5
		c-6.5,0-12.2,3-17.2,9.1C1374.9,1081.6,1372.4,1090.4,1372.4,1101.9z"/>
	<path class="st1" d="M1517.4,1117.4l15.7,1.9c-2.5,9.2-7.1,16.3-13.8,21.4c-6.7,5.1-15.3,7.6-25.7,7.6c-13.1,0-23.5-4-31.2-12.1
		c-7.7-8.1-11.5-19.4-11.5-34c0-15.1,3.9-26.8,11.7-35.1c7.8-8.3,17.9-12.5,30.2-12.5c12,0,21.8,4.1,29.4,12.2
		c7.6,8.2,11.4,19.7,11.4,34.5c0,0.9,0,2.3-0.1,4.1h-66.9c0.6,9.9,3.4,17.4,8.4,22.6c5,5.2,11.3,7.9,18.8,7.9
		c5.6,0,10.3-1.5,14.3-4.4C1512,1128.5,1515.1,1123.8,1517.4,1117.4z M1467.5,1092.8h50.1c-0.7-7.5-2.6-13.2-5.7-17
		c-4.8-5.9-11.1-8.8-18.8-8.8c-7,0-12.9,2.3-17.6,7C1470.6,1078.7,1468,1085,1467.5,1092.8z"/>
	<path class="st1" d="M1553.3,1146.2v-89.7h13.7v13.6c3.5-6.4,6.7-10.6,9.7-12.6c3-2,6.2-3,9.8-3c5.1,0,10.3,1.6,15.6,4.9l-5.2,14.1
		c-3.7-2.2-7.4-3.3-11.2-3.3c-3.3,0-6.3,1-9,3c-2.6,2-4.5,4.8-5.7,8.3c-1.7,5.4-2.5,11.3-2.5,17.7v47H1553.3z"/>
	<path class="st1" d="M1612.4,1039.9v-17.5h15.2v17.5H1612.4z M1612.4,1146.2v-89.7h15.2v89.7H1612.4z"/>
	<path class="st1" d="M1713.3,1117.4l15.7,1.9c-2.5,9.2-7.1,16.3-13.8,21.4c-6.7,5.1-15.3,7.6-25.7,7.6c-13.1,0-23.5-4-31.2-12.1
		c-7.7-8.1-11.5-19.4-11.5-34c0-15.1,3.9-26.8,11.7-35.1c7.8-8.3,17.9-12.5,30.2-12.5c12,0,21.8,4.1,29.4,12.2
		c7.6,8.2,11.4,19.7,11.4,34.5c0,0.9,0,2.3-0.1,4.1h-66.9c0.6,9.9,3.4,17.4,8.4,22.6c5,5.2,11.3,7.9,18.8,7.9
		c5.6,0,10.3-1.5,14.3-4.4C1707.9,1128.5,1711,1123.8,1713.3,1117.4z M1663.4,1092.8h50.1c-0.7-7.5-2.6-13.2-5.7-17
		c-4.8-5.9-11.1-8.8-18.8-8.8c-7,0-12.9,2.3-17.6,7C1666.5,1078.7,1663.9,1085,1663.4,1092.8z"/>
	<path class="st1" d="M1749.3,1146.2v-89.7h13.7v12.8c6.6-9.9,16.1-14.8,28.6-14.8c5.4,0,10.4,1,14.9,2.9c4.5,1.9,7.9,4.5,10.2,7.6
		c2.3,3.2,3.8,6.9,4.7,11.2c0.6,2.8,0.8,7.7,0.8,14.8v55.2H1807v-54.6c0-6.2-0.6-10.8-1.8-13.9s-3.3-5.5-6.3-7.3
		c-3-1.8-6.5-2.7-10.6-2.7c-6.5,0-12.1,2.1-16.8,6.2c-4.7,4.1-7.1,11.9-7.1,23.4v49H1749.3z"/>
	<path class="st1" d="M1905.3,1113.4l15,1.9c-1.6,10.3-5.8,18.4-12.5,24.2c-6.7,5.8-15,8.7-24.8,8.7c-12.3,0-22.1-4-29.6-12
		c-7.5-8-11.2-19.5-11.2-34.5c0-9.7,1.6-18.2,4.8-25.4c3.2-7.3,8.1-12.7,14.7-16.3c6.6-3.6,13.7-5.4,21.4-5.4
		c9.7,0,17.7,2.5,23.9,7.4c6.2,4.9,10.2,11.9,11.9,21l-14.8,2.3c-1.4-6-3.9-10.6-7.5-13.6c-3.6-3-7.9-4.6-13-4.6
		c-7.7,0-13.9,2.7-18.7,8.2c-4.8,5.5-7.2,14.2-7.2,26.1c0,12.1,2.3,20.8,6.9,26.3c4.6,5.5,10.6,8.2,18.1,8.2c6,0,11-1.8,15-5.5
		C1901.7,1126.6,1904.2,1121,1905.3,1113.4z"/>
	<path class="st1" d="M1995.9,1117.4l15.7,1.9c-2.5,9.2-7.1,16.3-13.8,21.4c-6.7,5.1-15.3,7.6-25.7,7.6c-13.1,0-23.5-4-31.2-12.1
		c-7.7-8.1-11.5-19.4-11.5-34c0-15.1,3.9-26.8,11.7-35.1c7.8-8.3,17.9-12.5,30.2-12.5c12,0,21.8,4.1,29.4,12.2
		c7.6,8.2,11.4,19.7,11.4,34.5c0,0.9,0,2.3-0.1,4.1h-66.9c0.6,9.9,3.3,17.4,8.4,22.6c5,5.2,11.3,7.9,18.8,7.9
		c5.6,0,10.3-1.5,14.3-4.4C1990.5,1128.5,1993.6,1123.8,1995.9,1117.4z M1946,1092.8h50.1c-0.7-7.5-2.6-13.2-5.7-17
		c-4.8-5.9-11.1-8.8-18.8-8.8c-7,0-12.9,2.3-17.6,7C1949.1,1078.7,1946.5,1085,1946,1092.8z"/>
	<path class="st1" d="M2114.4,1132.6l2.2,13.4c-4.3,0.9-8.1,1.4-11.5,1.4c-5.5,0-9.8-0.9-12.8-2.6c-3-1.7-5.2-4-6.4-6.9
		c-1.2-2.8-1.9-8.8-1.9-18v-51.6h-11.2v-11.8h11.2v-22.2l15.1-9.1v31.3h15.3v11.8h-15.3v52.5c0,4.3,0.3,7.1,0.8,8.4
		c0.5,1.2,1.4,2.2,2.6,3c1.2,0.7,2.9,1.1,5.2,1.1C2109.4,1133.2,2111.6,1133,2114.4,1132.6z"/>
	<path class="st1" d="M2130.5,1146.2v-123.8h15.2v44.4c7.1-8.2,16-12.3,26.9-12.3c6.6,0,12.4,1.3,17.3,3.9
		c4.9,2.6,8.4,6.2,10.5,10.9c2.1,4.6,3.2,11.3,3.2,20.1v56.8h-15.2v-56.8c0-7.6-1.6-13.1-4.9-16.6c-3.3-3.5-8-5.2-14-5.2
		c-4.5,0-8.7,1.2-12.7,3.5c-4,2.3-6.8,5.5-8.5,9.5c-1.7,4-2.5,9.5-2.5,16.6v49.1H2130.5z"/>
	<path class="st1" d="M2289.3,1117.4l15.7,1.9c-2.5,9.2-7.1,16.3-13.8,21.4c-6.7,5.1-15.3,7.6-25.7,7.6c-13.1,0-23.5-4-31.2-12.1
		c-7.7-8.1-11.5-19.4-11.5-34c0-15.1,3.9-26.8,11.7-35.1c7.8-8.3,17.9-12.5,30.2-12.5c12,0,21.8,4.1,29.4,12.2
		c7.6,8.2,11.4,19.7,11.4,34.5c0,0.9,0,2.3-0.1,4.1h-66.9c0.6,9.9,3.4,17.4,8.4,22.6c5,5.2,11.3,7.9,18.8,7.9
		c5.6,0,10.3-1.5,14.3-4.4C2283.9,1128.5,2287,1123.8,2289.3,1117.4z M2239.4,1092.8h50.1c-0.7-7.5-2.6-13.2-5.7-17
		c-4.8-5.9-11.1-8.8-18.8-8.8c-7,0-12.9,2.3-17.6,7C2242.5,1078.7,2239.9,1085,2239.4,1092.8z"/>
	<path class="st1" d="M2378.2,1146.2v-77.9h-13.4v-11.8h13.4v-9.5c0-6,0.5-10.5,1.6-13.4c1.5-3.9,4-7.1,7.7-9.6
		c3.7-2.4,8.9-3.7,15.5-3.7c4.3,0,9,0.5,14.2,1.5l-2.3,13.3c-3.2-0.6-6.1-0.8-9-0.8c-4.6,0-7.9,1-9.8,3c-1.9,2-2.9,5.7-2.9,11.1v8.3
		h17.5v11.8h-17.5v77.9H2378.2z"/>
	<path class="st1" d="M2423.5,1146.2v-123.8h15.2v123.8H2423.5z"/>
	<path class="st1" d="M2457.8,1101.4c0-16.6,4.6-28.9,13.9-36.9c7.7-6.6,17.1-10,28.2-10c12.3,0,22.4,4,30.2,12.1
		c7.8,8.1,11.7,19.2,11.7,33.5c0,11.5-1.7,20.6-5.2,27.2c-3.5,6.6-8.5,11.8-15.1,15.4c-6.6,3.7-13.8,5.5-21.7,5.5
		c-12.6,0-22.7-4-30.5-12.1C2461.7,1128.1,2457.8,1116.5,2457.8,1101.4z M2473.5,1101.4c0,11.5,2.5,20.1,7.5,25.8
		c5,5.7,11.3,8.6,18.9,8.6c7.5,0,13.8-2.9,18.8-8.6c5-5.7,7.5-14.5,7.5-26.3c0-11.1-2.5-19.5-7.6-25.2c-5-5.7-11.3-8.6-18.8-8.6
		c-7.6,0-13.9,2.8-18.9,8.5C2476,1081.3,2473.5,1089.9,2473.5,1101.4z"/>
	<path class="st1" d="M2577.5,1146.2l-27.5-89.7h15.7l14.3,51.8l5.3,19.3c0.2-1,1.8-7.1,4.6-18.5l14.3-52.5h15.6l13.4,52l4.5,17.1
		l5.2-17.3l15.4-51.9h14.8l-28,89.7h-15.8l-14.3-53.7l-3.5-15.3l-18.2,69H2577.5z"/>
</g>
<rect x="1167.1" y="1080.9" class="st2" width="1518.9" height="194.6"/>
<rect x="1610.7" y="1235.4" class="st2" width="135.1" height="2.7"/>
</svg>
